<svg width="48" height="86" viewBox="0 0 48 86" fill="none" xmlns="http://www.w3.org/2000/svg">
<path d="M46.8225 64.4361V58.4901C46.8225 57.9435 47.0868 57.4996 47.4112 57.4996C47.7356 57.4996 47.9999 57.9435 47.9999 58.4901V64.4361C48.0029 64.6744 47.9278 65.0497 47.8167 65.2716C47.7056 65.504 47.5539 65.6425 47.3917 65.638C47.2295 65.6321 47.0853 65.4846 46.9832 65.2553C46.8811 65.0333 46.824 64.6803 46.821 64.4361H46.8225ZM41.1413 69.1874C41.2224 69.1115 41.2975 69.0132 41.3635 68.8955C41.4236 68.7778 41.4702 68.6408 41.5017 68.4948C41.754 67.2928 41.8636 66.0715 41.8727 64.8576L41.8757 61.3067V54.2124C41.8757 53.3366 42.2977 52.6261 42.8173 52.6261C43.3369 52.6261 43.7589 53.3366 43.7589 54.2124V58.4916C43.7589 59.071 44.0547 59.5342 44.4062 59.4776C44.7125 59.4285 44.9363 58.9653 44.9363 58.4484V54.2124C44.9363 53.3366 45.3583 52.6261 45.8779 52.6261C46.3975 52.6261 46.8195 53.3366 46.8195 54.2124V54.4775C46.8195 55.0569 47.1154 55.5201 47.4668 55.4635C47.7732 55.4144 47.9969 54.9512 47.9969 54.4343V49.6844C48.0044 48.9397 47.9834 48.198 47.8693 47.4771C47.7611 46.7547 47.5749 46.0442 47.3226 45.3591C46.8225 43.9858 46.0431 42.7212 45.0699 41.625C44.0968 40.5258 42.9224 39.5963 41.6264 38.8635C40.9791 38.4956 40.3018 38.1769 39.6035 37.9088C39.255 37.7732 38.9006 37.6541 38.5417 37.5424L38.0491 37.4009L37.5821 37.2832C36.3356 36.9868 35.0861 36.8423 33.8501 36.8319H31.5374C30.9532 36.8304 30.4862 37.1238 30.5432 37.4709C30.5928 37.7747 31.0598 37.9967 31.5809 37.9967H33.7345L34.0994 38.0041C34.3427 38.0056 34.5875 38.025 34.8308 38.0384C35.3189 38.0756 35.8085 38.1307 36.298 38.2141C36.7861 38.2931 37.2757 38.4063 37.7623 38.5329L38.1422 38.6431C38.2834 38.6833 38.4201 38.728 38.5567 38.7742C38.8315 38.865 39.1019 38.9633 39.3692 39.072C40.44 39.4995 41.4552 40.0596 42.3712 40.7387C43.0125 41.2124 43.4675 41.7814 43.6883 42.2595C43.9106 42.7406 43.9121 43.1174 43.7048 43.2753C43.6012 43.3542 43.457 43.3721 43.2858 43.3438C43.1101 43.3185 42.9104 43.2425 42.6896 43.1368C42.2481 42.9238 41.7255 42.5887 41.1818 42.1925C40.5556 41.7337 39.8768 41.342 39.1634 41.0203C38.8075 40.8594 38.4441 40.7134 38.0731 40.5868C37.8884 40.5228 37.7022 40.4617 37.5115 40.4081C37.3388 40.356 37.1706 40.3113 36.9979 40.2696C36.3146 40.0998 35.6237 39.9851 34.9359 39.924C34.592 39.8927 34.2466 39.8749 33.9027 39.8704L33.6564 39.8674H33.0842C32.5301 39.8674 32.0855 40.1296 32.0855 40.4513C32.0855 40.773 32.5316 41.0351 33.0842 41.0351H33.6564L33.8847 41.0381C34.2001 41.0411 34.5154 41.059 34.8293 41.0873C35.46 41.1439 36.0893 41.2481 36.711 41.403C36.8672 41.4403 37.0204 41.482 37.1766 41.5297C37.3448 41.5773 37.51 41.6309 37.6737 41.6875C38.0026 41.7992 38.3254 41.9273 38.6408 42.0688C39.2731 42.3518 39.8783 42.6959 40.4354 43.101C40.922 43.4525 41.2539 43.8934 41.3906 44.2762C41.4597 44.4684 41.4822 44.6456 41.4642 44.7901C41.4431 44.9375 41.3801 45.0552 41.2764 45.1341C41.1728 45.2131 41.0407 45.2473 40.8905 45.2459C40.7373 45.2473 40.5691 45.2131 40.3919 45.1535C40.0345 45.0358 39.6365 44.8288 39.246 44.5547C39.2085 44.5294 39.1724 44.5011 39.1349 44.4773C38.8706 44.3015 38.5822 44.2151 38.3495 44.2256C38.1167 44.233 37.9455 44.3269 37.8839 44.4922C37.8314 44.6352 37.8734 44.8094 37.977 44.9703C38.0792 45.1356 38.2383 45.2965 38.4351 45.4276L38.4966 45.4708C38.8285 45.7001 39.0313 46.0189 39.0778 46.3093C39.1259 46.6027 39.0253 46.8589 38.8105 47.0213C38.5973 47.1822 38.3179 47.2298 38.0506 47.2104C37.7803 47.1896 37.516 47.1032 37.2892 46.9468L37.2637 46.9289C37.1105 46.8247 36.9228 46.8009 36.7636 46.847C36.6014 46.8947 36.4707 47.0094 36.3957 47.1673C36.2695 47.4473 36.3431 47.7333 36.5308 47.8658H36.5338C36.7005 47.982 36.7651 48.1816 36.717 48.3797C36.672 48.5808 36.5188 48.7759 36.3041 48.9382C36.0908 49.0991 35.864 49.2093 35.6898 49.2823C35.5126 49.3538 35.3865 49.3866 35.3249 49.3434C35.2513 49.2912 35.1702 49.248 35.0876 49.2123C35.0666 49.2033 35.0456 49.1944 35.0245 49.1885C35.0035 49.178 34.9825 49.1706 34.96 49.1661C34.9494 49.1631 34.9389 49.1572 34.9284 49.1542L34.9134 49.1512L34.8879 49.1438C34.8398 49.1274 34.7857 49.117 34.7347 49.1036C34.5259 49.0529 34.3022 49.0157 34.0679 48.9978C33.9508 48.9889 33.8321 48.9844 33.7105 48.9829H32.9596H26.7392C26.155 48.9829 25.688 49.2763 25.745 49.6249C25.7946 49.9287 26.2616 50.1506 26.7828 50.1506H33.7225C33.9282 50.1551 34.1235 50.1745 34.3007 50.2058L34.4298 50.2326C34.4689 50.246 34.5124 50.2504 34.55 50.2638C34.577 50.2728 34.571 50.2713 34.5695 50.2683C34.5695 50.2668 34.5695 50.2713 34.5695 50.2698V59.6862C34.5695 60.2656 34.8653 60.7288 35.2168 60.6722C35.5231 60.623 35.7469 60.1598 35.7469 59.643V56.7951C35.7469 54.4969 36.8537 52.6336 38.2203 52.6336C39.5869 52.6336 40.6938 54.4969 40.6938 56.7951V64.7474L40.6787 65.4504C40.6412 66.3858 40.5406 67.3152 40.3529 68.2238C40.3033 68.468 40.3093 68.7093 40.3498 68.9059C40.3949 69.104 40.491 69.2604 40.6322 69.326C40.7944 69.4004 40.9761 69.3453 41.1383 69.1949L41.1413 69.1874ZM30.7955 40.4498C30.7955 40.1266 30.348 39.8659 29.7968 39.8659H25.5468C24.9956 39.8659 24.5481 40.1281 24.5481 40.4498C24.5481 40.7715 24.9956 41.0337 25.5468 41.0337H29.7968C30.348 41.0337 30.7955 40.7715 30.7955 40.4498ZM36.7426 44.3969C36.9393 44.3507 37.097 44.2598 37.1601 44.1094C37.2231 43.9619 37.1751 43.7817 37.0279 43.6223C36.8852 43.46 36.6404 43.314 36.3581 43.241C36.1178 43.1785 35.876 43.1264 35.6343 43.0802C35.3459 43.0266 35.0726 43.0578 34.8744 43.1412C34.6746 43.2291 34.55 43.3632 34.5365 43.524C34.5229 43.6849 34.6206 43.8413 34.7812 43.9619C34.9419 44.0885 35.1642 44.1824 35.4195 44.2285C35.6343 44.2688 35.849 44.3149 36.0593 44.3701C36.3116 44.4356 36.5428 44.4401 36.7411 44.3969H36.7426ZM33.302 73.3669C33.2404 73.4354 33.1879 73.5084 33.1533 73.5873C33.0827 73.7437 33.0737 73.9135 33.1473 74.058C33.2209 74.2024 33.3666 74.2903 33.5468 74.3156C33.6369 74.3276 33.7375 74.3261 33.8366 74.3052C33.9342 74.2814 34.0349 74.2397 34.131 74.1831C35.457 73.3907 36.5293 72.3496 37.2877 71.079C38.0521 69.8115 38.5042 68.3086 38.6964 66.7015C38.7159 66.499 38.7459 66.2994 38.758 66.0938L38.797 65.4787L38.8105 64.8546L38.8135 64.6982V55.6825C38.8135 55.1359 38.5492 54.692 38.2248 54.692C37.9004 54.692 37.6361 55.1359 37.6361 55.6825V64.6982L37.6331 64.8442L37.6211 65.428L37.5851 66.0015C37.5731 66.1921 37.546 66.3753 37.528 66.563C37.3493 68.0465 36.9393 69.3826 36.2755 70.4818C35.6147 71.5825 34.7016 72.4747 33.5197 73.1837C33.4341 73.2343 33.3606 73.2969 33.3005 73.3683L33.302 73.3669ZM7.03885 79.2383C6.76552 79.143 6.53875 79.137 6.42912 79.2532C6.31799 79.3724 6.34502 79.5958 6.48769 79.8579C6.63036 80.1186 6.88416 80.4343 7.22657 80.6876C8.45503 81.6393 9.76157 82.4034 11.0696 83.0096C12.3792 83.6173 13.6902 84.0686 14.9773 84.4157C15.3317 84.5065 15.6696 84.5244 15.9234 84.4782C16.1757 84.4246 16.3469 84.3114 16.3829 84.155C16.4175 83.9971 16.3108 83.8259 16.1141 83.6739C15.9144 83.516 15.623 83.3745 15.2851 83.2882C14.0552 82.956 12.8072 82.5255 11.5682 81.9506C10.3307 81.3772 9.10229 80.6563 7.95043 79.7656C7.62905 79.5288 7.31217 79.3307 7.03734 79.2368L7.03885 79.2383ZM19.3144 84.2325C19.0846 84.3084 18.9284 84.435 18.9074 84.5944C18.8864 84.7538 19.0035 84.9176 19.2138 85.0532C19.4225 85.1842 19.7199 85.2796 20.0593 85.3153L20.4047 85.3496L20.7456 85.3749L21.4274 85.424C21.8794 85.4523 22.3255 85.4658 22.7745 85.4851C23.2175 85.4911 23.6606 85.5 24.1036 85.5C24.5481 85.4926 24.9866 85.494 25.4357 85.4762C27.2228 85.4166 29.0625 85.2453 30.9577 84.8923C31.9098 84.7017 32.868 84.4887 33.8456 84.1833C34.3307 84.0463 34.8248 83.8631 35.3129 83.6933L36.0518 83.3999C36.2965 83.3046 36.5443 83.1928 36.7906 83.0796C37.0369 82.9634 37.2817 82.8592 37.528 82.7296L38.2624 82.3438C38.5057 82.2098 38.7489 82.0608 38.9907 81.9179C39.2325 81.7778 39.4728 81.6185 39.7101 81.4576C40.1892 81.1463 40.6532 80.7888 41.1128 80.4284C41.338 80.2377 41.5633 80.0471 41.7855 79.852C42.0093 79.6598 42.2196 79.4454 42.4343 79.2398C42.7512 78.9404 42.966 78.5919 43.0786 78.3119C43.1912 78.0304 43.1912 77.804 43.0651 77.6997C42.9419 77.5969 42.7182 77.6342 42.4553 77.7637C42.191 77.8933 41.8997 78.1316 41.6023 78.4117C41.4011 78.6038 41.2059 78.8049 40.9971 78.9836L40.3679 79.5228C39.9369 79.8594 39.5028 80.196 39.0523 80.488C38.8285 80.6399 38.6048 80.7888 38.375 80.9199C38.1467 81.054 37.9185 81.194 37.6887 81.3206L36.9949 81.684C36.7636 81.8076 36.5308 81.9044 36.298 82.0147C36.0653 82.1234 35.831 82.2277 35.5982 82.3185L34.8969 82.597C34.4313 82.7579 33.9628 82.9337 33.4987 83.0632C32.5661 83.3537 31.6485 83.5577 30.7339 83.741C28.9123 84.0806 27.1327 84.2474 25.3951 84.3055C24.9596 84.3218 24.5316 84.3218 24.0991 84.3293C23.6681 84.3293 23.2371 84.3204 22.806 84.3144C22.369 84.295 21.9365 84.2831 21.498 84.2563L20.8372 84.2086L20.5068 84.1848L20.1734 84.1506C19.846 84.1163 19.5442 84.152 19.3159 84.2325H19.3144ZM14.8196 80.5952C14.7685 80.7501 14.8481 80.9259 15.0208 81.0882C15.1935 81.2476 15.4623 81.4055 15.7762 81.4844C16.7539 81.751 17.7255 81.9342 18.6927 82.0877C19.1747 82.1547 19.6583 82.2247 20.1359 82.2679C20.6164 82.323 21.091 82.3528 21.5671 82.387C22.0416 82.4168 22.5147 82.4332 22.9863 82.4481C23.4563 82.4526 23.9249 82.469 24.3949 82.457L25.0993 82.4466L25.8081 82.4183C26.2797 82.4049 26.7572 82.3617 27.2333 82.3289C29.1421 82.1606 31.0884 81.8508 33.0437 81.2476C34.0198 80.9437 34.9975 80.5773 35.9571 80.1096C36.9153 79.639 37.8554 79.076 38.7414 78.4072C38.8841 78.2985 39.0103 78.1823 39.1139 78.0646C39.2145 77.941 39.2926 77.8174 39.3467 77.7012C39.4548 77.4688 39.4638 77.2678 39.3542 77.1471C39.2445 77.028 39.0403 77.0116 38.803 77.0741C38.6844 77.1054 38.5567 77.159 38.4276 77.229C38.2939 77.2946 38.1587 77.3765 38.0266 77.4763C37.2066 78.0959 36.3326 78.6202 35.436 79.0596C34.538 79.4975 33.6174 79.843 32.6923 80.1305C30.8406 80.7025 28.9739 81.0018 27.1312 81.1642C26.6716 81.1955 26.2106 81.2372 25.7525 81.2506L25.0662 81.2774L24.3829 81.2863C23.9264 81.2982 23.4713 81.2819 23.0148 81.2774C22.5567 81.2625 22.1002 81.2461 21.6407 81.2178C20.7216 81.1612 19.798 81.0659 18.8699 80.9303C17.9418 80.7829 17.0122 80.6086 16.0841 80.3554C15.4894 80.1931 14.9232 80.2869 14.8196 80.5937V80.5952ZM40.4279 75.4432C40.3709 75.6845 40.3799 75.8796 40.5045 75.9868C40.6247 76.0911 40.8379 76.0881 41.0677 75.9719C41.296 75.8543 41.5633 75.6428 41.7765 75.3478C42.3352 74.5972 42.8023 73.7884 43.2077 72.9647C43.6117 72.1381 43.9151 71.2876 44.1734 70.4356C44.2635 70.1034 44.2785 69.7862 44.2304 69.5464C44.1734 69.3066 44.0562 69.1442 43.897 69.1115C43.7379 69.0772 43.5667 69.177 43.4195 69.3572C43.2618 69.5389 43.1236 69.8026 43.041 70.1124C42.8008 70.9063 42.5184 71.6972 42.1445 72.4613C41.769 73.2224 41.3395 73.9671 40.8244 74.6582C40.6277 74.9293 40.482 75.2004 40.4264 75.4432H40.4279ZM8.96563 71.9146C8.88153 71.8327 8.79893 71.7612 8.71033 71.7106C8.53462 71.6078 8.3514 71.5765 8.20723 71.6495C8.06156 71.7225 7.98347 71.8878 7.97746 72.1023C7.97596 72.2081 7.98647 72.3302 8.02401 72.4508C8.06306 72.5715 8.12163 72.6966 8.19672 72.8202C8.76289 73.7273 9.45521 74.5599 10.2497 75.2808C11.0441 76.0002 11.9316 76.6094 12.8703 77.1129C14.7505 78.1182 16.8049 78.7096 18.8699 79.0402C19.9031 79.2055 20.9438 79.3098 21.9831 79.3709C23.0238 79.426 24.0615 79.4334 25.1008 79.4096C27.1777 79.3411 29.2682 79.1221 31.3061 78.5844C31.5825 78.5189 31.8107 78.3774 31.9564 78.224C32.1021 78.0706 32.1651 77.8978 32.1156 77.7444C32.066 77.591 31.9143 77.4837 31.7146 77.4331C31.5134 77.381 31.2671 77.3929 31.0058 77.4554C29.0835 77.9633 27.0771 78.1748 25.0677 78.2419C24.0615 78.2642 23.0523 78.2582 22.0491 78.2046C21.046 78.1451 20.0473 78.0453 19.0606 77.8874C17.0903 77.5716 15.1605 77.0086 13.4334 76.0851C12.5714 75.6234 11.765 75.0678 11.0486 74.4184C10.3323 73.7675 9.71202 73.0198 9.20141 72.2021C9.13383 72.0919 9.05424 71.9951 8.96863 71.9131L8.96563 71.9146ZM33.0121 76.9877C32.889 77.1531 32.8349 77.3273 32.892 77.4778C32.9491 77.6297 33.1068 77.7295 33.317 77.7563C33.5273 77.7831 33.7961 77.7563 34.0559 77.6371C34.2751 77.5344 34.4974 77.4391 34.7137 77.3303C34.9675 77.1963 35.1687 77.0205 35.2783 76.8388C35.3865 76.6511 35.4075 76.4679 35.3249 76.3309C35.2423 76.1924 35.0711 76.1238 34.8683 76.1209C34.6626 76.1134 34.4193 76.1641 34.185 76.2862C33.9853 76.386 33.7796 76.4739 33.5768 76.5692C33.3365 76.6794 33.1353 76.8209 33.0121 76.9877ZM9.77509 61.9621C9.4492 61.9621 9.18639 62.4059 9.18639 62.9526V64.7176L9.1939 65.0303C9.19991 65.2374 9.19691 65.4474 9.21493 65.6515C9.25397 66.4766 9.3591 67.2809 9.5333 68.048C9.87721 69.5866 10.5065 70.9733 11.4391 72.1083C12.3672 73.2477 13.6076 74.1458 15.0599 74.8012C16.5091 75.4581 18.146 75.8796 19.8535 76.1149C20.3491 76.1894 20.7861 75.9645 20.8177 75.6442C20.8507 75.3225 20.4858 75.0291 20.0187 74.9591C18.3953 74.7372 16.865 74.3365 15.5509 73.7407C14.2324 73.1449 13.1556 72.3555 12.3552 71.374C11.5517 70.3939 10.999 69.1919 10.6837 67.7963C10.526 67.1007 10.4284 66.3604 10.3923 65.5919C10.3758 65.4027 10.3788 65.2046 10.3728 65.011L10.3668 64.7191V64.369V62.954C10.3668 62.4074 10.1025 61.9636 9.77809 61.9636L9.77509 61.9621ZM26.7062 75.2793C26.5545 75.3955 26.4659 75.5489 26.4794 75.7098C26.4914 75.8706 26.604 76.0092 26.7798 76.103C26.9525 76.1909 27.1867 76.2326 27.4375 76.2073C28.4738 76.0911 29.4875 75.9153 30.4591 75.6651C30.5763 75.6353 30.6859 75.5921 30.7775 75.5355C30.8691 75.4774 30.9457 75.4089 31.0043 75.3359C31.1229 75.19 31.1695 75.0246 31.1199 74.8697C31.0703 74.7163 30.9367 74.6031 30.7655 74.5435C30.6799 74.5137 30.5838 74.4988 30.4831 74.4974C30.381 74.4959 30.2714 74.5033 30.1618 74.5331C29.2532 74.767 28.2936 74.9338 27.3054 75.044C27.0651 75.0678 26.8548 75.1557 26.7062 75.2778V75.2793ZM16.9551 71.6719C16.8935 71.8208 16.904 71.9832 16.9731 72.1261C17.0407 72.2721 17.1879 72.3823 17.3636 72.4464C18.8909 72.9662 20.7501 73.2447 22.7099 73.3222C23.6891 73.3609 24.7118 73.3594 25.682 73.3058C26.6536 73.2507 27.5952 73.1479 28.4798 72.987C30.2534 72.6713 31.7957 72.1142 32.8695 71.3769C33.1488 71.1997 33.3816 70.9971 33.6144 70.8005C33.8276 70.5905 34.0424 70.3865 34.2181 70.1526C34.4088 69.9307 34.5605 69.6775 34.7197 69.4228C34.8608 69.1517 35.008 68.8806 35.1206 68.5708C35.1492 68.4993 35.1612 68.4248 35.1582 68.3533C35.1507 68.2774 35.1282 68.2044 35.0936 68.1389C35.0245 68.0078 34.9029 67.9065 34.7482 67.8603C34.592 67.8142 34.4328 67.8276 34.3022 67.8812C34.2376 67.908 34.1805 67.9467 34.1355 67.9944C34.0859 68.0361 34.0469 68.0882 34.0228 68.1478C33.9297 68.4084 33.8081 68.6274 33.6955 68.8478C33.5648 69.0504 33.4477 69.253 33.296 69.4258C33.1593 69.6119 32.9866 69.7698 32.8184 69.9411C32.6292 70.0975 32.443 70.2643 32.2072 70.4118C31.7537 70.7156 31.1995 71.0061 30.5282 71.2474C29.8614 71.4901 29.097 71.6912 28.268 71.8402C27.439 71.9891 26.5455 72.0889 25.6159 72.141C24.6878 72.1917 23.6966 72.1932 22.758 72.1559C20.8778 72.0815 19.1222 71.8119 17.742 71.3412C17.4162 71.234 17.0813 71.3755 16.9551 71.6733V71.6719ZM0.588698 36.9898C0.262812 36.9898 0 37.4336 0 37.9803V43.9262C0 44.4728 0.264313 44.9167 0.588698 44.9167C0.913083 44.9167 1.1774 44.4728 1.1774 43.9262V37.9803C1.1774 37.4336 0.913083 36.9898 0.588698 36.9898ZM0.588698 46.9498C0.262812 46.9498 0 47.3937 0 47.9403V64.7116L0.013516 65.4489L0.0225267 65.8168L0.0435516 66.1921C0.0795944 66.9264 0.415993 67.5088 0.740378 67.4701C0.90257 67.4522 1.03172 67.2899 1.11282 67.0441C1.19091 66.7968 1.24347 66.4796 1.21945 66.1266L1.19842 65.7676L1.19091 65.4146L1.1774 64.7086V63.5886V61.3529V47.9373C1.1774 47.3907 0.913083 46.9468 0.588698 46.9468V46.9498ZM3.65083 42.9357C3.32494 42.9357 3.06213 43.3796 3.06213 43.9262V64.2931C3.06213 64.4301 3.07865 64.5597 3.10869 64.6788C3.14022 64.8114 3.18678 64.941 3.24084 65.0423C3.35197 65.2493 3.50215 65.3729 3.66435 65.3685C3.82654 65.364 3.97071 65.2329 4.07433 65.0303C4.12539 64.9291 4.16594 64.8069 4.19447 64.6788C4.22451 64.5597 4.24103 64.4301 4.24103 64.2931V43.9262C4.24103 43.3796 3.97672 42.9357 3.65233 42.9357H3.65083ZM4.36868 67.4865C4.32363 67.3554 4.26806 67.2392 4.20348 67.1424C4.07583 66.9503 3.91514 66.8356 3.75295 66.8505C3.59076 66.8654 3.4586 67.0098 3.376 67.2347C3.33546 67.3465 3.30542 67.479 3.2919 67.625C3.27839 67.771 3.2919 67.9303 3.31593 68.0957C3.43607 68.9417 3.64032 69.7981 3.89111 70.6486C4.14792 71.5006 4.48882 72.3466 4.8913 73.1717C5.0595 73.4905 5.26825 73.7482 5.4785 73.8986C5.69325 74.0475 5.89299 74.0922 6.03265 74.0088C6.17082 73.9254 6.22338 73.7303 6.20085 73.4875C6.18283 73.2432 6.10324 72.9468 5.94705 72.6534C5.57611 71.8908 5.25773 71.1073 5.01895 70.312C4.78618 69.5181 4.59395 68.7168 4.48131 67.9199C4.45729 67.765 4.41524 67.619 4.37018 67.488L4.36868 67.4865ZM6.71296 33.0263C6.38707 33.0263 6.12426 33.4702 6.12426 34.0168V58.371C6.12426 58.9176 6.38858 59.3615 6.71296 59.3615C7.03734 59.3615 7.30166 58.9176 7.30166 58.371V34.0168C7.30166 33.4702 7.03734 33.0263 6.71296 33.0263ZM6.71296 60.1792C6.38707 60.1792 6.12426 60.623 6.12426 61.1697V61.8638C6.12426 62.4104 6.38858 62.8543 6.71296 62.8543C7.03734 62.8543 7.30166 62.4104 7.30166 61.8638V61.1697C7.30166 60.623 7.03734 60.1792 6.71296 60.1792ZM9.77509 23.1169C9.4492 23.1169 9.18639 23.5608 9.18639 24.1074V46.7368C9.18639 47.2834 9.45071 47.7273 9.77509 47.7273C10.0995 47.7273 10.3638 47.2834 10.3638 46.7368V24.1074C10.3638 23.5608 10.0995 23.1169 9.77509 23.1169ZM9.77509 53.9071C9.4492 53.9071 9.18639 54.3509 9.18639 54.8976V58.2965C9.18639 58.8431 9.45071 59.287 9.77509 59.287C10.0995 59.287 10.3638 58.8431 10.3638 58.2965V54.8976C10.3638 54.3509 10.0995 53.9071 9.77509 53.9071ZM12.8372 41.7471C12.5113 41.7471 12.2485 42.191 12.2485 42.7376V64.7071L12.253 64.868L12.259 65.1882C12.271 65.6127 12.3056 66.0208 12.3521 66.4156C12.4468 67.2035 12.624 67.908 12.8597 68.5216C12.8883 68.5931 12.9288 68.6572 12.9799 68.7078C13.0325 68.757 13.0985 68.7898 13.1661 68.8121C13.3043 68.8553 13.459 68.8449 13.6061 68.7749C13.7533 68.7048 13.8644 68.5931 13.9275 68.4755C13.9591 68.4159 13.9756 68.3578 13.9816 68.2952C13.9906 68.2312 13.9846 68.1672 13.9606 68.1076C13.7623 67.5952 13.6061 66.9815 13.5205 66.2726C13.4785 65.9181 13.4469 65.5457 13.4364 65.154L13.4304 64.8576L13.4259 64.7086V64.4941V63.6243V42.7406C13.4259 42.194 13.1616 41.7501 12.8372 41.7501V41.7471ZM20.5218 1.58233C20.66 1.54212 20.7831 1.48999 20.8853 1.43041C21.0895 1.30976 21.2127 1.15486 21.2021 0.993997C21.1916 0.833135 21.0475 0.697594 20.8207 0.608227C20.7081 0.563543 20.5744 0.530775 20.4272 0.511412C20.2785 0.495028 20.1149 0.496517 19.9467 0.514391C19.6388 0.548648 19.3369 0.57248 19.0246 0.618653L18.0935 0.748236L17.1503 0.912076C16.838 0.965697 16.5151 1.04166 16.1997 1.10869C14.9262 1.39317 13.6272 1.77001 12.3191 2.28536C11.5937 2.56687 11.1207 3.09116 11.2634 3.37713C11.406 3.66907 12.0728 3.63332 12.7546 3.36969C13.9966 2.88114 15.2356 2.52069 16.4565 2.24812C16.7599 2.18556 17.0677 2.11109 17.3696 2.06045L18.2767 1.90257C18.8759 1.81767 19.4751 1.73128 20.0653 1.67766C20.229 1.66127 20.3837 1.62702 20.5218 1.58531V1.58233ZM8.69081 4.82042C8.5136 4.55232 7.79574 4.69977 7.11844 5.23747C6.20386 5.96432 5.33583 6.78651 4.5564 7.69359C3.78299 8.60663 3.10118 9.59563 2.5275 10.6219C1.38164 12.6833 0.701332 14.8638 0.349915 16.9357L0.228271 17.7117C0.19373 17.9679 0.168199 18.2211 0.139666 18.4773L0.0991175 18.8601C0.0871033 18.9867 0.0810962 19.1103 0.0720855 19.2354L0.0255303 19.9861L0.0075089 20.7234L0.00150178 21.0913V21.3892V22.5078V26.9791C0.00150178 27.5257 0.265815 27.9696 0.5902 27.9696C0.914585 27.9696 1.1789 27.5257 1.1789 26.9791V21.0943L1.18641 20.7413L1.20293 20.0353L1.24798 19.3188C1.25699 19.1997 1.263 19.0805 1.27351 18.9599L1.31256 18.5964C1.33959 18.3537 1.36362 18.1124 1.39666 17.8681L1.51229 17.1308C1.84569 15.1647 2.48845 13.1137 3.56072 11.1849C4.09836 10.2242 4.73512 9.30072 5.45747 8.44725C6.18584 7.59826 6.9968 6.8297 7.85431 6.14902C8.48056 5.65005 8.87252 5.0915 8.69381 4.81893L8.69081 4.82042ZM14.5883 5.74686C14.749 5.57855 14.8256 5.39684 14.7745 5.24343C14.7235 5.09001 14.5523 4.99469 14.312 4.96639C14.0732 4.94107 13.7638 4.97085 13.4515 5.10193C11.5111 5.8541 9.58436 6.99205 7.95193 8.54109C7.13796 9.31412 6.40359 10.1884 5.78486 11.1283C5.16763 12.0696 4.66753 13.0705 4.27857 14.0878C3.88961 15.1066 3.60578 16.1418 3.41355 17.168C3.22733 18.1943 3.12521 19.2101 3.08015 20.2125L3.06513 20.9587L3.06213 21.1449V21.3073V21.626V25.445C3.06213 25.9916 3.32644 26.4355 3.65083 26.4355C3.97521 26.4355 4.23953 25.9916 4.23953 25.445V21.1464L4.24403 20.9691L4.25905 20.2587C4.3026 19.3069 4.39872 18.3447 4.57292 17.381C4.75314 16.4159 5.01895 15.4507 5.37938 14.5049C5.74131 13.5591 6.20386 12.6341 6.77153 11.7673C7.3407 10.9019 8.01651 10.0976 8.7674 9.38413C10.2722 7.95573 12.0593 6.89524 13.887 6.18625C14.1813 6.06263 14.4276 5.91517 14.5883 5.74388V5.74686ZM3.65083 27.7224C3.32494 27.7224 3.06213 28.1662 3.06213 28.7128V32.928C3.06213 33.4747 3.32644 33.9185 3.65083 33.9185C3.97521 33.9185 4.23953 33.4747 4.23953 32.928V28.7128C4.23953 28.1662 3.97521 27.7224 3.65083 27.7224ZM25.6144 7.01142C25.6309 6.69416 25.1879 6.39925 24.6262 6.39776C23.587 6.3769 22.5477 6.40521 21.507 6.4767C20.4678 6.5467 19.4285 6.66735 18.3968 6.86098C16.3394 7.24079 14.2924 7.87977 12.4498 8.95814C11.5307 9.49583 10.6687 10.1438 9.90725 10.8974C9.14434 11.6496 8.48506 12.5075 7.95493 13.4355C6.89468 15.2988 6.36605 17.3989 6.19334 19.4797C6.17532 19.7612 6.22488 20.0204 6.31949 20.208C6.41561 20.3957 6.56579 20.5119 6.72648 20.5163C6.89017 20.5208 7.03434 20.4151 7.15148 20.2453C7.26862 20.0755 7.34972 19.8401 7.36623 19.575C7.52843 17.6193 8.02101 15.692 8.97915 14.0104C9.93428 12.3303 11.361 10.9436 13.049 9.96352C14.737 8.97452 16.6532 8.3698 18.6116 8.00786C19.5922 7.82466 20.5879 7.70848 21.5896 7.64146C22.5913 7.57145 23.599 7.54464 24.6052 7.56549C25.1473 7.56549 25.5964 7.33761 25.6129 7.01142H25.6144ZM6.71296 21.3326C6.38707 21.3326 6.12426 21.7764 6.12426 22.3231V23.0172C6.12426 23.5638 6.38858 24.0076 6.71296 24.0076C7.03734 24.0076 7.30166 23.5638 7.30166 23.0172V22.3231C7.30166 21.7764 7.03734 21.3326 6.71296 21.3326ZM33.6579 12.0532C33.739 11.9162 33.7435 11.739 33.6639 11.5796C33.5843 11.4202 33.4356 11.2623 33.2314 11.1611C31.8137 10.464 30.1873 10.0246 28.4993 9.74904C27.6508 9.62095 26.7843 9.53307 25.9087 9.47796C25.0302 9.43626 24.1411 9.41243 23.2536 9.43477C21.483 9.472 19.7409 9.64776 18.098 10.0201C16.4595 10.397 14.9202 10.9719 13.6272 11.8015C13.4454 11.9281 13.3133 12.092 13.2607 12.2588C13.2127 12.4301 13.2337 12.5984 13.3343 12.725C13.4334 12.8531 13.5881 12.9186 13.7518 12.9246C13.9215 12.935 14.1077 12.8933 14.2684 12.7816C15.4143 12.0443 16.8244 11.5126 18.3623 11.1581C19.9046 10.808 21.5716 10.6383 23.2791 10.6025C24.1351 10.5802 24.9971 10.6025 25.8411 10.6442C26.6821 10.6978 27.5096 10.7812 28.3146 10.9034C29.914 11.164 31.4308 11.5781 32.7103 12.2081C33.0737 12.3928 33.4942 12.3243 33.6579 12.0532ZM10.9194 16.6631C10.8669 16.5052 10.7603 16.3727 10.6086 16.3131C10.3127 16.1924 9.92076 16.4188 9.79161 16.8553C9.51078 17.74 9.33507 18.6843 9.24947 19.6629C9.21943 20.1425 9.45671 20.5372 9.78861 20.5476C10.1085 20.5536 10.3953 20.2036 10.4239 19.7627C10.5035 18.8556 10.6656 17.9947 10.9164 17.2038C10.978 17.0131 10.9675 16.8195 10.9194 16.6631ZM18.3668 14.1117C18.4569 13.9806 18.4944 13.8197 18.4539 13.6633C18.4118 13.507 18.2977 13.3863 18.143 13.3148C17.9928 13.2493 17.8051 13.2388 17.6174 13.294C16.835 13.5382 16.1396 13.8436 15.5509 14.1936C14.9622 14.5451 14.4621 14.9249 14.0672 15.3628C13.6692 15.8007 13.3298 16.2744 13.0655 16.8508C12.7982 17.4227 12.5864 18.0811 12.4468 18.8228L12.3567 19.3948C12.3386 19.5959 12.3101 19.791 12.2951 19.995C12.2861 20.2036 12.265 20.4061 12.259 20.6191L12.253 20.9394L12.2485 21.1002V21.1836L12.247 21.2924V31.735C12.247 32.2816 12.5113 32.7255 12.8357 32.7255C13.1601 32.7255 13.4244 32.2816 13.4244 31.735V21.2924L13.4349 20.6593C13.4394 20.4627 13.459 20.2795 13.468 20.0874C13.483 19.9012 13.5085 19.7254 13.5235 19.5437L13.6046 19.0328C13.7293 18.3745 13.9125 17.8145 14.1318 17.3453C14.348 16.8702 14.6168 16.5023 14.9322 16.1537C15.2446 15.8037 15.6501 15.4969 16.1502 15.196C16.6502 14.8981 17.263 14.6255 17.9748 14.4036C18.146 14.3545 18.2782 14.2427 18.3653 14.1072L18.3668 14.1117ZM31.231 5.11235C31.4533 5.06022 31.6125 4.95 31.653 4.79361C31.6936 4.63722 31.6035 4.46444 31.4233 4.30953C31.243 4.16059 30.9742 4.03696 30.6589 3.96994C29.0474 3.63779 27.4556 3.47544 25.8877 3.39947C25.5828 3.38607 25.3035 3.43969 25.1023 3.53799C24.901 3.64077 24.7779 3.78524 24.7749 3.94611C24.7719 4.10697 24.889 4.25442 25.0797 4.36316C25.272 4.47486 25.5363 4.55232 25.8321 4.56572C27.3504 4.64019 28.8853 4.79659 30.4246 5.11384C30.7249 5.17789 31.0088 5.17193 31.231 5.11384V5.11235ZM36.2049 10.5876C36.4077 10.6085 36.5864 10.5608 36.687 10.4357C36.7876 10.3091 36.7906 10.1274 36.7065 9.92927C36.6254 9.7267 36.4467 9.5286 36.2079 9.36774C36.0097 9.22624 35.7979 9.10709 35.5892 8.98197C35.3444 8.82856 35.0801 8.77047 34.8668 8.77643C34.6521 8.78387 34.4869 8.86132 34.4148 9.0058C34.3427 9.15028 34.3743 9.33199 34.4794 9.50775C34.5845 9.68351 34.7662 9.84586 34.9885 9.98587C35.1792 10.1006 35.3729 10.2108 35.5532 10.3389C35.7709 10.4863 36.0067 10.5623 36.2049 10.5891V10.5876ZM37.4709 16.5186C37.7743 16.4129 37.9065 15.978 37.7142 15.5818C37.3358 14.7596 36.8372 14.0223 36.2395 13.3684C36.0998 13.2046 35.9091 13.1182 35.7364 13.0974C35.5622 13.0765 35.4045 13.1242 35.2934 13.2433C35.1837 13.3625 35.1402 13.5263 35.1537 13.6887C35.1687 13.8525 35.2468 14.0119 35.3654 14.1534C35.882 14.7209 36.3146 15.3554 36.6465 16.0778C36.8116 16.4174 37.1616 16.6318 37.4709 16.5216V16.5186ZM46.0341 25.2245C46.6408 24.2028 47.1334 22.9859 47.4728 21.6334L47.5344 21.3787L47.5644 21.2507C47.5749 21.209 47.5839 21.1672 47.5914 21.1062C47.626 20.8813 47.656 20.6534 47.683 20.421C47.6966 20.3048 47.7086 20.1887 47.7221 20.071C47.7326 19.9533 47.7386 19.8312 47.7446 19.7106C47.7581 19.4693 47.7671 19.2235 47.7716 18.9762C47.7716 18.726 47.7626 18.4698 47.7521 18.2136C47.7461 18.0856 47.7386 17.956 47.7326 17.8264C47.7236 17.6968 47.7071 17.5628 47.6936 17.4302C47.6635 17.1651 47.632 16.8985 47.5899 16.6303C47.5404 16.3578 47.4863 16.0852 47.4277 15.8111C47.0703 14.1921 46.4846 12.5224 45.6331 10.9227C45.2186 10.1214 44.711 9.34838 44.1704 8.60365C43.6102 7.87232 43.0095 7.16334 42.3487 6.52734C41.6969 5.87645 40.9926 5.30598 40.2733 4.77127C39.9113 4.51657 39.5434 4.26336 39.174 4.03101L38.6138 3.69588L38.333 3.53204L38.0506 3.3816C36.5413 2.56836 35.0095 1.97704 33.5092 1.54063C32.7508 1.32168 32.0855 1.47211 32.0795 1.82512C32.0765 1.98151 32.2057 2.14982 32.4159 2.30025C32.6262 2.45218 32.913 2.57729 33.2374 2.68007C34.58 3.07328 35.9406 3.59459 37.2757 4.29613C38.6093 4.99469 39.9188 5.87943 41.1037 6.95928C42.2856 8.04063 43.3264 9.3171 44.1508 10.6874C44.9768 12.0592 45.5896 13.5174 45.998 14.9622C46.0776 15.2556 46.1257 15.5416 46.1452 15.8067C46.1587 16.0703 46.1362 16.3101 46.0927 16.5157C46.001 16.9655 45.7743 17.2366 45.4844 17.2425C45.3583 17.2455 45.2336 17.1934 45.109 17.0995C44.9828 17.0057 44.8582 16.8702 44.7441 16.7033C44.6269 16.5365 44.5308 16.3399 44.4257 16.121C44.3236 15.902 44.2365 15.6607 44.1674 15.406C43.8325 14.2561 43.3669 13.1093 42.7542 12.0205C42.143 10.9317 41.3831 9.90246 40.5075 8.99538C39.632 8.08681 38.6468 7.30186 37.6151 6.64799C36.5819 5.99262 35.5006 5.46833 34.4133 5.05129C33.742 4.79957 33.1218 4.90383 33.0797 5.25981C33.0602 5.41025 33.1608 5.58451 33.3335 5.74388C33.5062 5.90773 33.7525 6.04029 34.0304 6.15647C35.0561 6.55415 36.0668 7.04716 37.0264 7.66082C37.986 8.2715 38.8931 9.00431 39.6966 9.84586C40.5 10.6874 41.1954 11.6362 41.7555 12.6446C42.3172 13.6529 42.7437 14.7179 43.053 15.7933C43.1191 16.042 43.1567 16.2848 43.1657 16.5097C43.1702 16.7346 43.1402 16.9431 43.0921 17.1204C42.987 17.5076 42.7557 17.7474 42.4674 17.7594C42.3412 17.7653 42.2181 17.7236 42.0979 17.6462C41.9748 17.5702 41.8561 17.4585 41.7465 17.3215C41.6354 17.1844 41.5453 17.0191 41.4521 16.8389C41.3605 16.6586 41.284 16.4591 41.2269 16.2476C40.9596 15.336 40.5991 14.4438 40.1366 13.6038C39.674 12.7637 39.1094 11.9758 38.4546 11.2698C38.4035 11.2132 38.3495 11.1611 38.2954 11.1134C38.2383 11.0687 38.1798 11.03 38.1212 10.9957C38.0041 10.9272 37.8884 10.881 37.7803 10.8572C37.5655 10.808 37.3778 10.8617 37.2817 11.0091C37.1991 11.1357 37.2006 11.3204 37.2637 11.5141C37.3268 11.7077 37.4574 11.9043 37.6181 12.092C38.2398 12.7697 38.7715 13.5278 39.1995 14.3425C39.7146 15.3152 39.7657 16.3727 39.4983 17.1412C39.4653 17.2395 39.4293 17.3334 39.3887 17.4227C39.3467 17.5121 39.2956 17.5985 39.2445 17.6789C39.1409 17.8398 39.0238 17.9798 38.8931 18.0975C38.6363 18.3313 38.3164 18.4803 37.9725 18.5324C37.6361 18.583 37.3057 18.5339 36.9829 18.4326C36.66 18.3298 36.3671 18.1585 36.0833 17.9694C35.9436 17.8726 35.819 17.7623 35.6868 17.6596C35.5577 17.5538 35.4525 17.4302 35.3354 17.3185C35.2228 17.2038 35.1327 17.0742 35.035 16.9565C34.9885 16.8955 34.9464 16.8314 34.9089 16.7629C34.8668 16.6989 34.8248 16.6363 34.7903 16.5693C34.4824 15.9765 34.0859 15.4954 33.6144 15.0426L33.4236 14.8817L33.3305 14.7983L33.2269 14.7224C33.1578 14.6702 33.0902 14.6181 33.0242 14.5645L32.8019 14.417L32.6923 14.341L32.5721 14.271L32.3348 14.1281L32.0795 13.994C31.9939 13.9493 31.9128 13.9002 31.8182 13.8614C31.1019 13.5204 30.2744 13.2329 29.3658 13.0154C28.4572 12.7965 27.4661 12.652 26.4373 12.5626C25.9568 12.5284 25.5573 12.7935 25.5858 13.1465C25.6159 13.4474 25.9658 13.7021 26.3743 13.7289C27.5757 13.8346 28.7035 14.0283 29.6842 14.3068C30.1753 14.4453 30.6183 14.6121 31.0298 14.7834C31.4338 14.9622 31.7867 15.1573 32.1021 15.3569C32.4204 15.555 32.6712 15.7739 32.904 15.9943C33.1323 16.2193 33.3365 16.4457 33.5062 16.7108C33.6789 16.9744 33.8351 17.2634 33.9763 17.5925C34.1145 17.9232 34.2271 18.3045 34.3247 18.7186C34.3457 18.8258 34.3713 18.9331 34.4013 19.0373C34.4253 19.1475 34.4493 19.2607 34.4794 19.3695L34.5259 19.5348L34.5665 19.7076C34.595 19.8238 34.6311 19.9355 34.6626 20.0516C34.6911 20.1708 34.7242 20.29 34.7587 20.4076L34.8143 20.5849L34.8638 20.7681C34.8984 20.8902 34.9374 21.0123 34.978 21.133C34.9885 21.1583 34.9975 21.203 35.008 21.2462L35.038 21.3743L35.0996 21.629C35.439 22.9799 35.9301 24.1983 36.5383 25.2201C37.7533 27.2651 39.4308 28.5282 41.2855 28.5282C43.1387 28.5282 44.8176 27.2636 46.0326 25.2201L46.0341 25.2245Z" fill="#FF4747"/>
</svg>
