<svg width="40" height="40" viewBox="0 0 40 40" fill="none" xmlns="http://www.w3.org/2000/svg">
<path d="M0 20C0 16.2828 0 14.4241 0.307436 12.8786C1.56994 6.53151 6.53151 1.56994 12.8786 0.307436C14.4241 0 16.2828 0 20 0C23.7172 0 25.5759 0 27.1214 0.307436C33.4685 1.56994 38.4301 6.53151 39.6926 12.8786C40 14.4241 40 16.2828 40 20C40 23.7172 40 25.5759 39.6926 27.1214C38.4301 33.4685 33.4685 38.4301 27.1214 39.6926C25.5759 40 23.7172 40 20 40C16.2828 40 14.4241 40 12.8786 39.6926C6.53151 38.4301 1.56994 33.4685 0.307436 27.1214C0 25.5759 0 23.7172 0 20Z" fill="black" fill-opacity="0.04"/>
<path fill-rule="evenodd" clip-rule="evenodd" d="M22.9254 14.5581C23.1915 14.8021 23.1915 15.1979 22.9254 15.4419L18.4375 19.5581C18.1714 19.8021 18.1714 20.1979 18.4375 20.4419L22.9254 24.5581C23.1915 24.8021 23.1915 25.1979 22.9254 25.4419C22.6593 25.686 22.2278 25.686 21.9617 25.4419L17.4738 21.3258C16.6754 20.5936 16.6754 19.4064 17.4738 18.6742L21.9617 14.5581C22.2278 14.314 22.6593 14.314 22.9254 14.5581Z" fill="black"/>
</svg>
