<svg width="40" height="40" viewBox="0 0 40 40" fill="none" xmlns="http://www.w3.org/2000/svg">
<path d="M4 16.8C4 12.3196 4 10.0794 4.87195 8.36808C5.63893 6.86278 6.86278 5.63893 8.36808 4.87195C10.0794 4 12.3196 4 16.8 4H23.2C27.6804 4 29.9206 4 31.6319 4.87195C33.1372 5.63893 34.3611 6.86278 35.1281 8.36808C36 10.0794 36 12.3196 36 16.8V23.2C36 27.6804 36 29.9206 35.1281 31.6319C34.3611 33.1372 33.1372 34.3611 31.6319 35.1281C29.9206 36 27.6804 36 23.2 36H16.8C12.3196 36 10.0794 36 8.36808 35.1281C6.86278 34.3611 5.63893 33.1372 4.87195 31.6319C4 29.9206 4 27.6804 4 23.2V16.8Z" fill="black" fill-opacity="0.04"/>
<path d="M27.5 26H12.5C12.3687 25.9992 12.24 25.964 12.1266 25.8978C12.0132 25.8317 11.9192 25.7369 11.8539 25.6231C11.7886 25.5092 11.7543 25.3801 11.7545 25.2489C11.7547 25.1176 11.7894 24.9887 11.855 24.875C12.4728 23.8062 13.25 21.1072 13.25 17.75C13.25 15.9598 13.9612 14.2429 15.227 12.977C16.4929 11.7112 18.2098 11 20 11C21.7902 11 23.5071 11.7112 24.773 12.977C26.0388 14.2429 26.75 15.9598 26.75 17.75C26.75 21.1081 27.5281 23.8062 28.1469 24.875C28.2126 24.9888 28.2472 25.1179 28.2474 25.2493C28.2475 25.3808 28.2131 25.5099 28.1475 25.6239C28.082 25.7378 27.9877 25.8325 27.8741 25.8985C27.7604 25.9645 27.6314 25.9995 27.5 26Z" fill="black" fill-opacity="0.04"/>
<path d="M28.7938 24.4944C28.2734 23.5981 27.5 21.0622 27.5 17.75C27.5 15.7609 26.7098 13.8532 25.3033 12.4467C23.8968 11.0402 21.9891 10.25 20 10.25C18.0109 10.25 16.1032 11.0402 14.6967 12.4467C13.2902 13.8532 12.5 15.7609 12.5 17.75C12.5 21.0631 11.7256 23.5981 11.2053 24.4944C11.0725 24.7222 11.002 24.9811 11.0011 25.2449C11.0002 25.5086 11.0689 25.768 11.2002 25.9967C11.3315 26.2255 11.5208 26.4156 11.749 26.5478C11.9772 26.6801 12.2362 26.7498 12.5 26.75H16.3259C16.499 27.5967 16.9592 28.3577 17.6286 28.9042C18.2981 29.4507 19.1358 29.7492 20 29.7492C20.8642 29.7492 21.7019 29.4507 22.3714 28.9042C23.0409 28.3577 23.501 27.5967 23.6741 26.75H27.5C27.7637 26.7496 28.0226 26.6798 28.2507 26.5475C28.4788 26.4151 28.668 26.225 28.7992 25.9963C28.9303 25.7676 28.9989 25.5083 28.998 25.2446C28.997 24.9809 28.9266 24.7222 28.7938 24.4944ZM20 28.25C19.5348 28.2499 19.0812 28.1055 18.7014 27.8369C18.3216 27.5683 18.0344 27.1886 17.8794 26.75H22.1206C21.9656 27.1886 21.6784 27.5683 21.2986 27.8369C20.9189 28.1055 20.4652 28.2499 20 28.25ZM12.5 25.25C13.2219 24.0087 14 21.1325 14 17.75C14 16.1587 14.6322 14.6326 15.7574 13.5074C16.8826 12.3821 18.4087 11.75 20 11.75C21.5913 11.75 23.1174 12.3821 24.2427 13.5074C25.3679 14.6326 26 16.1587 26 17.75C26 21.1297 26.7763 24.0059 27.5 25.25H12.5Z" fill="black"/>
</svg>
