<svg width="32" height="32" viewBox="0 0 32 32" fill="none" xmlns="http://www.w3.org/2000/svg">
<path d="M0 12.8C0 8.31958 0 6.07937 0.871948 4.36808C1.63893 2.86278 2.86278 1.63893 4.36808 0.871948C6.07937 0 8.31958 0 12.8 0H19.2C23.6804 0 25.9206 0 27.6319 0.871948C29.1372 1.63893 30.3611 2.86278 31.1281 4.36808C32 6.07937 32 8.31958 32 12.8V19.2C32 23.6804 32 25.9206 31.1281 27.6319C30.3611 29.1372 29.1372 30.3611 27.6319 31.1281C25.9206 32 23.6804 32 19.2 32H12.8C8.31958 32 6.07937 32 4.36808 31.1281C2.86278 30.3611 1.63893 29.1372 0.871948 27.6319C0 25.9206 0 23.6804 0 19.2V12.8Z" fill="black" fill-opacity="0.04"/>
<path d="M13.375 14.9153C13.489 14.8495 13.5837 14.7548 13.6496 14.6407C13.7154 14.5267 13.75 14.3973 13.75 14.2656V7.51563C13.7493 7.39605 13.7201 7.27837 13.6647 7.1724C13.6093 7.06643 13.5294 6.97523 13.4316 6.90643C13.3338 6.83762 13.2209 6.7932 13.1025 6.77686C12.984 6.76052 12.8634 6.77274 12.7506 6.8125C10.5615 7.58726 8.72061 9.11748 7.55877 11.1281C6.39692 13.1387 5.99037 15.4977 6.41219 17.7813C6.43405 17.8993 6.48395 18.0104 6.55769 18.1052C6.63143 18.2 6.72686 18.2757 6.83594 18.3259C6.93424 18.3719 7.04148 18.3956 7.15 18.3953C7.28164 18.3954 7.41097 18.3608 7.525 18.295L13.375 14.9153ZM12.25 8.65188V13.8325L7.76125 16.4228C7.75 16.2812 7.75 16.1388 7.75 16C7.75133 14.4797 8.17215 12.9893 8.96612 11.6928C9.76009 10.3963 10.8964 9.34404 12.25 8.65188ZM25.75 16C25.7507 18.1404 25.0471 20.2216 23.7477 21.9225C22.4483 23.6234 20.6252 24.8493 18.5599 25.4113C16.4945 25.9733 14.3017 25.84 12.3196 25.0321C10.3375 24.2241 8.67638 22.7863 7.5925 20.9406C7.54197 20.8554 7.50884 20.761 7.49502 20.6628C7.48121 20.5647 7.48697 20.4648 7.51199 20.3689C7.53701 20.273 7.58079 20.183 7.64079 20.1041C7.70079 20.0253 7.77582 19.9591 7.86156 19.9094L15.25 15.6091V7C15.25 6.80109 15.329 6.61032 15.4697 6.46967C15.6103 6.32902 15.8011 6.25 16 6.25C17.7014 6.25087 19.3731 6.69675 20.8489 7.54338C22.3248 8.39001 23.5535 9.60794 24.4131 11.0763C24.4234 11.0913 24.4328 11.1063 24.4422 11.1222C24.4516 11.1381 24.4609 11.1569 24.4694 11.1737C25.3106 12.643 25.7522 14.307 25.75 16Z" fill="black"/>
</svg>
