<svg width="66" height="51" viewBox="0 0 66 51" fill="none" xmlns="http://www.w3.org/2000/svg">
<path d="M63 0.5H3C2.33696 0.5 1.70107 0.763393 1.23223 1.23223C0.763392 1.70107 0.5 2.33696 0.5 3V45.5C0.5 46.8261 1.02678 48.0979 1.96447 49.0355C2.90215 49.9732 4.17392 50.5 5.5 50.5H60.5C61.8261 50.5 63.0979 49.9732 64.0355 49.0355C64.9732 48.0979 65.5 46.8261 65.5 45.5V3C65.5 2.33696 65.2366 1.70107 64.7678 1.23223C64.2989 0.763393 63.663 0.5 63 0.5ZM56.5719 5.5L33 27.1094L9.42813 5.5H56.5719ZM60.5 45.5H5.5V8.68438L31.3094 32.3437C31.7706 32.7671 32.3739 33.0021 33 33.0021C33.6261 33.0021 34.2294 32.7671 34.6906 32.3437L60.5 8.68438V45.5Z" fill="black"/>
</svg>
