<svg width="40" height="40" viewBox="0 0 40 40" fill="none" xmlns="http://www.w3.org/2000/svg">
<path d="M4 16.8C4 12.3196 4 10.0794 4.87195 8.36808C5.63893 6.86278 6.86278 5.63893 8.36808 4.87195C10.0794 4 12.3196 4 16.8 4H23.2C27.6804 4 29.9206 4 31.6319 4.87195C33.1372 5.63893 34.3611 6.86278 35.1281 8.36808C36 10.0794 36 12.3196 36 16.8V23.2C36 27.6804 36 29.9206 35.1281 31.6319C34.3611 33.1372 33.1372 34.3611 31.6319 35.1281C29.9206 36 27.6804 36 23.2 36H16.8C12.3196 36 10.0794 36 8.36808 35.1281C6.86278 34.3611 5.63893 33.1372 4.87195 31.6319C4 29.9206 4 27.6804 4 23.2V16.8Z" fill="black" fill-opacity="0.04"/>
<path d="M27.1893 20L23.7825 23.4069L23.7822 23.4072C23.6415 23.5478 23.5625 23.7386 23.5625 23.9375C23.5625 23.9495 23.5628 23.9615 23.5634 23.9735C23.5723 24.1598 23.6503 24.336 23.7822 24.4678C23.9228 24.6085 24.1136 24.6875 24.3125 24.6875C24.5114 24.6875 24.7022 24.6085 24.8428 24.4678L24.8431 24.4675L28.7803 20.5303C28.921 20.3897 29 20.1989 29 20C29 19.8011 28.921 19.6103 28.7803 19.4697L24.8429 15.5323C24.7022 15.3915 24.5114 15.3125 24.3125 15.3125C24.1136 15.3125 23.9228 15.3915 23.7822 15.5322C23.6415 15.6728 23.5625 15.8636 23.5625 16.0625C23.5625 16.2614 23.6415 16.4522 23.7822 16.5928L27.1893 20Z" fill="#1C1C1C"/>
<path d="M17.75 20.75H28.25C28.6642 20.75 29 20.4142 29 20C29 19.5858 28.6642 19.25 28.25 19.25H17.75C17.3358 19.25 17 19.5858 17 20C17 20.4142 17.3358 20.75 17.75 20.75Z" fill="#1C1C1C"/>
<path d="M12.5 12.5H17.75C18.1642 12.5 18.5 12.1642 18.5 11.75C18.5 11.3358 18.1642 11 17.75 11H12.5C11.8787 11 11.4393 11.4393 11.4393 11.4393C11 11.8787 11 12.5 11 12.5V27.5C11 28.1213 11.4393 28.5607 11.4393 28.5607C11.8787 29 12.5 29 12.5 29H17.75C18.1642 29 18.5 28.6642 18.5 28.25C18.5 27.8358 18.1642 27.5 17.75 27.5H12.5V12.5Z" fill="#1C1C1C"/>
</svg>
