<svg width="32" height="32" viewBox="0 0 32 32" fill="none" xmlns="http://www.w3.org/2000/svg">
<path d="M0 12.8C0 8.31958 0 6.07937 0.871948 4.36808C1.63893 2.86278 2.86278 1.63893 4.36808 0.871948C6.07937 0 8.31958 0 12.8 0H19.2C23.6804 0 25.9206 0 27.6319 0.871948C29.1372 1.63893 30.3611 2.86278 31.1281 4.36808C32 6.07937 32 8.31958 32 12.8V19.2C32 23.6804 32 25.9206 31.1281 27.6319C30.3611 29.1372 29.1372 30.3611 27.6319 31.1281C25.9206 32 23.6804 32 19.2 32H12.8C8.31958 32 6.07937 32 4.36808 31.1281C2.86278 30.3611 1.63893 29.1372 0.871948 27.6319C0 25.9206 0 23.6804 0 19.2V12.8Z" fill="black" fill-opacity="0.04"/>
<path d="M25 9.25V11.5H7V9.25C7 9.05109 7.07902 8.86032 7.21967 8.71967C7.36032 8.57902 7.55109 8.5 7.75 8.5H24.25C24.4489 8.5 24.6397 8.57902 24.7803 8.71967C24.921 8.86032 25 9.05109 25 9.25Z" fill="black" fill-opacity="0.04"/>
<path d="M24.25 7.75H7.75C7.35218 7.75 6.97064 7.90804 6.68934 8.18934C6.40804 8.47064 6.25 8.85218 6.25 9.25V22.75C6.25 23.1478 6.40804 23.5294 6.68934 23.8107C6.97064 24.092 7.35218 24.25 7.75 24.25H24.25C24.6478 24.25 25.0294 24.092 25.3107 23.8107C25.592 23.5294 25.75 23.1478 25.75 22.75V9.25C25.75 8.85218 25.592 8.47064 25.3107 8.18934C25.0294 7.90804 24.6478 7.75 24.25 7.75ZM24.25 9.25V10.75H7.75V9.25H24.25ZM24.25 22.75H7.75V12.25H24.25V22.75ZM20.5 14.5C20.5 15.6935 20.0259 16.8381 19.182 17.682C18.3381 18.5259 17.1935 19 16 19C14.8065 19 13.6619 18.5259 12.818 17.682C11.9741 16.8381 11.5 15.6935 11.5 14.5C11.5 14.3011 11.579 14.1103 11.7197 13.9697C11.8603 13.829 12.0511 13.75 12.25 13.75C12.4489 13.75 12.6397 13.829 12.7803 13.9697C12.921 14.1103 13 14.3011 13 14.5C13 15.2956 13.3161 16.0587 13.8787 16.6213C14.4413 17.1839 15.2044 17.5 16 17.5C16.7956 17.5 17.5587 17.1839 18.1213 16.6213C18.6839 16.0587 19 15.2956 19 14.5C19 14.3011 19.079 14.1103 19.2197 13.9697C19.3603 13.829 19.5511 13.75 19.75 13.75C19.9489 13.75 20.1397 13.829 20.2803 13.9697C20.421 14.1103 20.5 14.3011 20.5 14.5Z" fill="black"/>
</svg>
