<svg width="32" height="32" viewBox="0 0 32 32" fill="none" xmlns="http://www.w3.org/2000/svg">
<path d="M0 12.8C0 8.31958 0 6.07937 0.871948 4.36808C1.63893 2.86278 2.86278 1.63893 4.36808 0.871948C6.07937 0 8.31958 0 12.8 0H19.2C23.6804 0 25.9206 0 27.6319 0.871948C29.1372 1.63893 30.3611 2.86278 31.1281 4.36808C32 6.07937 32 8.31958 32 12.8V19.2C32 23.6804 32 25.9206 31.1281 27.6319C30.3611 29.1372 29.1372 30.3611 27.6319 31.1281C25.9206 32 23.6804 32 19.2 32H12.8C8.31958 32 6.07937 32 4.36808 31.1281C2.86278 30.3611 1.63893 29.1372 0.871948 27.6319C0 25.9206 0 23.6804 0 19.2V12.8Z" fill="black" fill-opacity="0.04"/>
<path d="M22.75 7H9.25C9.05109 7 8.86032 7.07902 8.71967 7.21967C8.57902 7.36032 8.5 7.55109 8.5 7.75V24.25C8.5 24.4489 8.57902 24.6397 8.71967 24.7803C8.86032 24.921 9.05109 25 9.25 25H22.75C22.9489 25 23.1397 24.921 23.2803 24.7803C23.421 24.6397 23.5 24.4489 23.5 24.25V7.75C23.5 7.55109 23.421 7.36032 23.2803 7.21967C23.1397 7.07902 22.9489 7 22.75 7ZM16 19.75C15.4067 19.75 14.8266 19.5741 14.3333 19.2444C13.8399 18.9148 13.4554 18.4462 13.2284 17.8981C13.0013 17.3499 12.9419 16.7467 13.0576 16.1647C13.1734 15.5828 13.4591 15.0482 13.8787 14.6287C14.2982 14.2091 14.8328 13.9234 15.4147 13.8076C15.9967 13.6919 16.5999 13.7513 17.1481 13.9784C17.6962 14.2054 18.1648 14.5899 18.4944 15.0833C18.8241 15.5766 19 16.1567 19 16.75C19 17.5456 18.6839 18.3087 18.1213 18.8713C17.5587 19.4339 16.7956 19.75 16 19.75Z" fill="black" fill-opacity="0.04"/>
<path d="M11.0491 22.6C11.1279 22.6592 11.2176 22.7024 11.3131 22.7269C11.4086 22.7514 11.508 22.7569 11.6056 22.7429C11.7032 22.729 11.7972 22.696 11.882 22.6457C11.9668 22.5954 12.0409 22.5289 12.1 22.45C12.5541 21.8445 13.1429 21.3531 13.8198 21.0147C14.4968 20.6762 15.2432 20.5 16 20.5C16.7568 20.5 17.5032 20.6762 18.1802 21.0147C18.8571 21.3531 19.4459 21.8445 19.9 22.45C19.9591 22.5288 20.0331 22.5952 20.1179 22.6454C20.2026 22.6955 20.2964 22.7285 20.3939 22.7425C20.4914 22.7564 20.5907 22.751 20.6861 22.7265C20.7815 22.7021 20.8712 22.6591 20.95 22.6C21.0288 22.5409 21.0952 22.4669 21.1454 22.3821C21.1955 22.2974 21.2285 22.2036 21.2425 22.1061C21.2564 22.0086 21.251 21.9093 21.2265 21.8139C21.2021 21.7185 21.1591 21.6288 21.1 21.55C20.4359 20.6596 19.5503 19.9586 18.5312 19.5166C19.0897 19.0067 19.481 18.3399 19.6537 17.6037C19.8264 16.8675 19.7725 16.0962 19.4991 15.3912C19.2256 14.6862 18.7454 14.0803 18.1215 13.653C17.4976 13.2258 16.759 12.9972 16.0028 12.9972C15.2466 12.9972 14.5081 13.2258 13.8841 13.653C13.2602 14.0803 12.78 14.6862 12.5065 15.3912C12.2331 16.0962 12.1792 16.8675 12.3519 17.6037C12.5247 18.3399 12.9159 19.0067 13.4744 19.5166C12.4533 19.9577 11.5657 20.6588 10.9 21.55C10.7806 21.709 10.7292 21.909 10.7571 22.1059C10.7851 22.3028 10.8901 22.4805 11.0491 22.6ZM16 14.5C16.445 14.5 16.88 14.632 17.25 14.8792C17.62 15.1264 17.9084 15.4778 18.0787 15.889C18.249 16.3001 18.2936 16.7525 18.2068 17.189C18.12 17.6254 17.9057 18.0263 17.591 18.341C17.2763 18.6557 16.8754 18.87 16.439 18.9568C16.0025 19.0436 15.5501 18.999 15.139 18.8287C14.7278 18.6584 14.3764 18.37 14.1292 18C13.882 17.63 13.75 17.195 13.75 16.75C13.75 16.1533 13.9871 15.581 14.409 15.159C14.831 14.7371 15.4033 14.5 16 14.5ZM22.75 6.25H9.25C8.85218 6.25 8.47064 6.40804 8.18934 6.68934C7.90804 6.97064 7.75 7.35218 7.75 7.75V24.25C7.75 24.6478 7.90804 25.0294 8.18934 25.3107C8.47064 25.592 8.85218 25.75 9.25 25.75H22.75C23.1478 25.75 23.5294 25.592 23.8107 25.3107C24.092 25.0294 24.25 24.6478 24.25 24.25V7.75C24.25 7.35218 24.092 6.97064 23.8107 6.68934C23.5294 6.40804 23.1478 6.25 22.75 6.25ZM22.75 24.25H9.25V7.75H22.75V24.25ZM12.25 10C12.25 9.80109 12.329 9.61032 12.4697 9.46967C12.6103 9.32902 12.8011 9.25 13 9.25H19C19.1989 9.25 19.3897 9.32902 19.5303 9.46967C19.671 9.61032 19.75 9.80109 19.75 10C19.75 10.1989 19.671 10.3897 19.5303 10.5303C19.3897 10.671 19.1989 10.75 19 10.75H13C12.8011 10.75 12.6103 10.671 12.4697 10.5303C12.329 10.3897 12.25 10.1989 12.25 10Z" fill="black"/>
</svg>
