<svg width="32" height="32" viewBox="0 0 32 32" fill="none" xmlns="http://www.w3.org/2000/svg">
<path d="M0 12.8C0 8.31958 0 6.07937 0.871948 4.36808C1.63893 2.86278 2.86278 1.63893 4.36808 0.871948C6.07937 0 8.31958 0 12.8 0H19.2C23.6804 0 25.9206 0 27.6319 0.871948C29.1372 1.63893 30.3611 2.86278 31.1281 4.36808C32 6.07937 32 8.31958 32 12.8V19.2C32 23.6804 32 25.9206 31.1281 27.6319C30.3611 29.1372 29.1372 30.3611 27.6319 31.1281C25.9206 32 23.6804 32 19.2 32H12.8C8.31958 32 6.07937 32 4.36808 31.1281C2.86278 30.3611 1.63893 29.1372 0.871948 27.6319C0 25.9206 0 23.6804 0 19.2V12.8Z" fill="black" fill-opacity="0.04"/>
<path d="M24.25 8.5H7.75C7.55109 8.5 7.36032 8.57902 7.21967 8.71967C7.07902 8.86032 7 9.05109 7 9.25V22.75C7 22.9489 7.07902 23.1397 7.21967 23.2803C7.36032 23.421 7.55109 23.5 7.75 23.5H24.25C24.4489 23.5 24.6397 23.421 24.7803 23.2803C24.921 23.1397 25 22.9489 25 22.75V9.25C25 9.05109 24.921 8.86032 24.7803 8.71967C24.6397 8.57902 24.4489 8.5 24.25 8.5ZM13 17.5C12.555 17.5 12.12 17.368 11.75 17.1208C11.38 16.8736 11.0916 16.5222 10.9213 16.111C10.751 15.6999 10.7064 15.2475 10.7932 14.811C10.88 14.3746 11.0943 13.9737 11.409 13.659C11.7237 13.3443 12.1246 13.13 12.561 13.0432C12.9975 12.9564 13.4499 13.001 13.861 13.1713C14.2722 13.3416 14.6236 13.63 14.8708 14C15.118 14.37 15.25 14.805 15.25 15.25C15.25 15.8467 15.0129 16.419 14.591 16.841C14.169 17.2629 13.5967 17.5 13 17.5Z" fill="black" fill-opacity="0.04"/>
<path d="M22.75 14.5C22.75 14.6989 22.671 14.8897 22.5303 15.0303C22.3897 15.171 22.1989 15.25 22 15.25H18.25C18.0511 15.25 17.8603 15.171 17.7197 15.0303C17.579 14.8897 17.5 14.6989 17.5 14.5C17.5 14.3011 17.579 14.1103 17.7197 13.9697C17.8603 13.829 18.0511 13.75 18.25 13.75H22C22.1989 13.75 22.3897 13.829 22.5303 13.9697C22.671 14.1103 22.75 14.3011 22.75 14.5ZM22 16.75H18.25C18.0511 16.75 17.8603 16.829 17.7197 16.9697C17.579 17.1103 17.5 17.3011 17.5 17.5C17.5 17.6989 17.579 17.8897 17.7197 18.0303C17.8603 18.171 18.0511 18.25 18.25 18.25H22C22.1989 18.25 22.3897 18.171 22.5303 18.0303C22.671 17.8897 22.75 17.6989 22.75 17.5C22.75 17.3011 22.671 17.1103 22.5303 16.9697C22.3897 16.829 22.1989 16.75 22 16.75ZM25.75 9.25V22.75C25.75 23.1478 25.592 23.5294 25.3107 23.8107C25.0294 24.092 24.6478 24.25 24.25 24.25H7.75C7.35218 24.25 6.97064 24.092 6.68934 23.8107C6.40804 23.5294 6.25 23.1478 6.25 22.75V9.25C6.25 8.85218 6.40804 8.47064 6.68934 8.18934C6.97064 7.90804 7.35218 7.75 7.75 7.75H24.25C24.6478 7.75 25.0294 7.90804 25.3107 8.18934C25.592 8.47064 25.75 8.85218 25.75 9.25ZM24.25 22.75V9.25H7.75V22.75H24.25ZM16.7256 19.5625C16.7754 19.7552 16.7465 19.9598 16.6454 20.1312C16.5443 20.3026 16.3793 20.4268 16.1866 20.4766C15.9939 20.5263 15.7893 20.4974 15.6179 20.3963C15.4465 20.2952 15.3222 20.1302 15.2725 19.9375C15.0259 18.9756 14.0481 18.25 12.9991 18.25C11.95 18.25 10.9731 18.9756 10.7256 19.9375C10.6759 20.1302 10.5517 20.2952 10.3802 20.3963C10.2088 20.4974 10.0043 20.5263 9.81156 20.4766C9.61887 20.4268 9.45382 20.3026 9.35272 20.1312C9.25163 19.9598 9.22277 19.7552 9.2725 19.5625C9.51588 18.6566 10.0912 17.8755 10.8841 17.3744C10.4627 16.9555 10.1752 16.421 10.058 15.8386C9.94082 15.2562 9.99918 14.652 10.2257 14.1028C10.4523 13.5536 10.8368 13.084 11.3305 12.7536C11.8242 12.4232 12.405 12.2468 12.9991 12.2468C13.5932 12.2468 14.1739 12.4232 14.6676 12.7536C15.1614 13.084 15.5459 13.5536 15.7724 14.1028C15.9989 14.652 16.0573 15.2562 15.9401 15.8386C15.8229 16.421 15.5354 16.9555 15.1141 17.3744C15.9078 17.8748 16.4836 18.6562 16.7266 19.5625H16.7256ZM13 16.75C13.2967 16.75 13.5867 16.662 13.8334 16.4972C14.08 16.3324 14.2723 16.0981 14.3858 15.824C14.4994 15.5499 14.5291 15.2483 14.4712 14.9574C14.4133 14.6664 14.2704 14.3991 14.0607 14.1893C13.8509 13.9796 13.5836 13.8367 13.2926 13.7788C13.0017 13.7209 12.7001 13.7506 12.426 13.8642C12.1519 13.9777 11.9176 14.17 11.7528 14.4166C11.588 14.6633 11.5 14.9533 11.5 15.25C11.5 15.6478 11.658 16.0294 11.9393 16.3107C12.2206 16.592 12.6022 16.75 13 16.75Z" fill="black"/>
</svg>
