<svg width="32" height="32" viewBox="0 0 32 32" fill="none" xmlns="http://www.w3.org/2000/svg">
<path d="M0 12.8C0 8.31958 0 6.07937 0.871948 4.36808C1.63893 2.86278 2.86278 1.63893 4.36808 0.871948C6.07937 0 8.31958 0 12.8 0H19.2C23.6804 0 25.9206 0 27.6319 0.871948C29.1372 1.63893 30.3611 2.86278 31.1281 4.36808C32 6.07937 32 8.31958 32 12.8V19.2C32 23.6804 32 25.9206 31.1281 27.6319C30.3611 29.1372 29.1372 30.3611 27.6319 31.1281C25.9206 32 23.6804 32 19.2 32H12.8C8.31958 32 6.07937 32 4.36808 31.1281C2.86278 30.3611 1.63893 29.1372 0.871948 27.6319C0 25.9206 0 23.6804 0 19.2V12.8Z" fill="black" fill-opacity="0.04"/>
<path fill-rule="evenodd" clip-rule="evenodd" d="M9.25 6.25C8.42157 6.25 7.75 6.92157 7.75 7.75V24.5426C7.75 24.9109 8.22538 25.0585 8.43402 24.7551L9.19447 23.649C9.49248 23.2155 10.1325 23.2155 10.4305 23.649L11.257 24.851C11.555 25.2845 12.195 25.2845 12.493 24.851L13.3195 23.649C13.6175 23.2155 14.2575 23.2155 14.5555 23.649L15.382 24.851C15.68 25.2845 16.32 25.2845 16.618 24.851L17.4445 23.649C17.7425 23.2155 18.3825 23.2155 18.6805 23.649L19.507 24.851C19.805 25.2845 20.445 25.2845 20.743 24.851L21.5695 23.649C21.8675 23.2155 22.5075 23.2155 22.8055 23.649L23.566 24.7551C23.7746 25.0585 24.25 24.9109 24.25 24.5426V7.75C24.25 6.92157 23.5784 6.25 22.75 6.25H9.25ZM16.9 18.4375H16.6V19.0938C16.6 19.2678 16.5368 19.4347 16.4243 19.5578C16.3117 19.6809 16.1591 19.75 16 19.75C15.8409 19.75 15.6883 19.6809 15.5757 19.5578C15.4632 19.4347 15.4 19.2678 15.4 19.0938V18.4375H14.2C14.0409 18.4375 13.8883 18.3684 13.7757 18.2453C13.6632 18.1222 13.6 17.9553 13.6 17.7812C13.6 17.6072 13.6632 17.4403 13.7757 17.3172C13.8883 17.1941 14.0409 17.125 14.2 17.125H16.9C17.1387 17.125 17.3676 17.0213 17.5364 16.8367C17.7052 16.6521 17.8 16.4017 17.8 16.1406C17.8 15.8796 17.7052 15.6292 17.5364 15.4446C17.3676 15.26 17.1387 15.1562 16.9 15.1562H15.1C14.543 15.1562 14.0089 14.9143 13.6151 14.4835C13.2212 14.0528 13 13.4685 13 12.8594C13 12.2502 13.2212 11.666 13.6151 11.2352C14.0089 10.8045 14.543 10.5625 15.1 10.5625H15.4V9.90625C15.4 9.7322 15.4632 9.56528 15.5757 9.44221C15.6883 9.31914 15.8409 9.25 16 9.25C16.1591 9.25 16.3117 9.31914 16.4243 9.44221C16.5368 9.56528 16.6 9.7322 16.6 9.90625V10.5625H17.8C17.9591 10.5625 18.1117 10.6316 18.2243 10.7547C18.3368 10.8778 18.4 11.0447 18.4 11.2188C18.4 11.3928 18.3368 11.5597 18.2243 11.6828C18.1117 11.8059 17.9591 11.875 17.8 11.875H15.1C14.8613 11.875 14.6324 11.9787 14.4636 12.1633C14.2948 12.3479 14.2 12.5983 14.2 12.8594C14.2 13.1204 14.2948 13.3708 14.4636 13.5554C14.6324 13.74 14.8613 13.8438 15.1 13.8438H16.9C17.457 13.8438 17.9911 14.0857 18.3849 14.5165C18.7788 14.9472 19 15.5315 19 16.1406C19 16.7498 18.7788 17.334 18.3849 17.7648C17.9911 18.1955 17.457 18.4375 16.9 18.4375Z" fill="#1C1C1C"/>
</svg>
